<svg width="20" height="16" viewBox="0 0 20 16" fill="none"
    xmlns="http://www.w3.org/2000/svg">
    <path d="M1.83236 5.1236C2.07386 5.29401 2.80183 5.80014 4.0163 6.64173C5.23081 7.48333 6.16121 8.13133 6.80754 8.58578C6.87855 8.6356 7.02941 8.74388 7.2602 8.91079C7.49103 9.07781 7.68282 9.21278 7.83544 9.31573C7.98817 9.41864 8.1728 9.53409 8.38952 9.66189C8.60617 9.78958 8.81039 9.88563 9.00215 9.94921C9.19395 10.0133 9.37149 10.0451 9.53481 10.0451H9.54552H9.55627C9.71959 10.0451 9.89721 10.0133 10.089 9.94921C10.2807 9.88563 10.4851 9.78947 10.7016 9.66189C10.9181 9.53394 11.1028 9.4186 11.2555 9.31573C11.4082 9.21278 11.5999 9.07781 11.8308 8.91079C12.0615 8.74373 12.2126 8.6356 12.2836 8.58578C12.9369 8.13133 14.599 6.97715 17.2694 5.12337C17.7878 4.76131 18.2209 4.32443 18.5689 3.81304C18.9171 3.30187 19.091 2.76562 19.091 2.2046C19.091 1.73578 18.9223 1.33446 18.5849 1.00069C18.2475 0.666833 17.8479 0.5 17.3864 0.5H1.70449C1.15764 0.5 0.736811 0.684632 0.442064 1.0539C0.147355 1.42323 0 1.88489 0 2.43882C0 2.88626 0.195378 3.37112 0.585949 3.89312C0.976482 4.41514 1.39209 4.82534 1.83236 5.1236Z" fill="white"></path>
    <path d="M18.0256 6.26349C15.6963 7.84006 13.9275 9.06532 12.7203 9.939C12.3155 10.2372 11.9871 10.4699 11.7349 10.6367C11.4827 10.8036 11.1472 10.9741 10.7281 11.148C10.3092 11.3222 9.9187 11.409 9.55642 11.409H9.54556H9.53485C9.17264 11.409 8.78196 11.3222 8.36299 11.148C7.94402 10.9741 7.60838 10.8036 7.35625 10.6367C7.10419 10.4699 6.77567 10.2372 6.37088 9.939C5.41201 9.23592 3.64711 8.01059 1.07611 6.26349C0.671175 5.99378 0.312509 5.68463 0 5.33667V13.7953C0 14.2643 0.166833 14.6654 0.500685 14.9992C0.834463 15.3332 1.23582 15.5001 1.7046 15.5001H17.3866C17.8553 15.5001 18.2566 15.3332 18.5904 14.9992C18.9243 14.6653 19.0911 14.2644 19.0911 13.7953V5.33667C18.7856 5.67743 18.4306 5.98658 18.0256 6.26349Z" fill="white"></path>
</svg>