<svg focusable="false" viewBox="0 0 24 24" aria-hidden="true">
    <svg viewBox="0 0 32 32" fill="none"
        xmlns="http://www.w3.org/2000/svg">
        <path fill-rule="evenodd" clip-rule="evenodd" d="M16 32C26.5882 32 32 24.9137 32 16C32 7.04179 26.5882 0 16 0C5.36471 0 0 7.04179 0 16C0 24.9137 5.36471 32 16 32ZM20.1 7.6C19 7.5 18.7 7.5 16 7.5C13.3 7.5 13 7.5 11.9 7.6C9 7.7 7.6 9.1 7.5 12C7.4 13.1 7.4 13.4 7.4 16.1C7.4 17.7785 7.43865 18.5681 7.46789 19.1656C7.48569 19.5292 7.5 19.8217 7.5 20.2C7.6 23.1 9 24.5 11.9 24.6C13 24.7 13.3 24.7 16 24.7C17.6785 24.7 18.4681 24.6614 19.0656 24.6321L19.0657 24.6321C19.4293 24.6143 19.7217 24.6 20.1 24.6C23 24.5 24.4 23.1 24.5 20.2C24.6 19.1 24.6 18.8 24.6 16.1C24.6 14.4215 24.5614 13.6319 24.5321 13.0344L24.5321 13.0343C24.5143 12.6707 24.5 12.3783 24.5 12C24.4 9.1 23 7.7 20.1 7.6ZM11.9 6.1C12.9 6 13.3 6 16 6C18.7 6 19.1 6 20.1 6.1C23.7 6.3 25.7 8.3 25.9 11.9C26 12.9 26 13.3 26 16C26 17.6481 25.9627 18.4019 25.9337 18.9894C25.9152 19.3643 25.9 19.6714 25.9 20.1C25.8 23.7 23.7 25.7 20.1 25.9C19.1 26 18.7 26 16 26C14.3519 26 13.5981 25.9627 13.0106 25.9337C12.6357 25.9152 12.3286 25.9 11.9 25.9C8.3 25.8 6.3 23.7 6.1 20.1C6 19.1 6 18.7 6 16C6 13.3 6 12.9 6.1 11.9C6.3 8.3 8.3 6.3 11.9 6.1ZM19.6 16C19.6 14 18 12.4 16 12.4C14 12.4 12.4 14 12.4 16C12.4 18 14 19.6 16 19.6C18 19.6 19.6 18 19.6 16ZM10.9 16C10.9 13.2 13.2 10.9 16 10.9C18.8 10.9 21.1 13.2 21.1 16C21.1 18.8 18.8 21.1 16 21.1C13.2 21.1 10.9 18.8 10.9 16ZM21.3 11.9C21.9627 11.9 22.5 11.3627 22.5 10.7C22.5 10.0373 21.9627 9.5 21.3 9.5C20.6372 9.5 20.1 10.0373 20.1 10.7C20.1 11.3627 20.6372 11.9 21.3 11.9Z" fill="white"></path>
    </svg>
</svg>