<svg width="16" height="16" viewBox="0 0 16 16" fill="none"
    xmlns="http://www.w3.org/2000/svg">
    <path d="M11.4949 10.4229C11.0048 9.93905 10.393 9.93905 9.90612 10.4229C9.53468 10.7912 9.16323 11.1595 8.79803 11.5341C8.69815 11.6371 8.61387 11.6589 8.49214 11.5903C8.2518 11.4592 7.99585 11.353 7.76487 11.2094C6.688 10.5321 5.78593 9.66125 4.98686 8.68115C4.59045 8.19422 4.23773 7.67295 3.99115 7.08613C3.9412 6.96752 3.95057 6.88949 4.04733 6.79273C4.41877 6.43377 4.78085 6.06545 5.14605 5.69713C5.65483 5.18523 5.65483 4.58593 5.14293 4.0709C4.85264 3.7775 4.56235 3.49033 4.27207 3.19692C3.97242 2.89727 3.67589 2.5945 3.37312 2.29797C2.88306 1.8204 2.27128 1.8204 1.78435 2.30109C1.40978 2.66941 1.05083 3.0471 0.670022 3.40918C0.317309 3.74316 0.139391 4.15206 0.101935 4.62963C0.0426292 5.40684 0.233032 6.14036 0.501469 6.85515C1.05083 8.33468 1.88735 9.64877 2.90179 10.8536C4.27207 12.483 5.90766 13.7721 7.82105 14.7022C8.68254 15.1205 9.57525 15.442 10.546 15.4951C11.214 15.5325 11.7945 15.364 12.2596 14.8427C12.578 14.4869 12.937 14.1622 13.2741 13.822C13.7735 13.3164 13.7766 12.7046 13.2803 12.2052C12.6872 11.609 12.0911 11.0159 11.4949 10.4229Z" fill="white"></path>
    <path d="M10.8987 7.93515L12.0505 7.73851C11.8694 6.68037 11.37 5.72211 10.6115 4.9605C9.80933 4.15831 8.79489 3.65265 7.67745 3.49658L7.51514 4.65461C8.37975 4.77634 9.16633 5.16651 9.78748 5.78766C10.3743 6.37447 10.7582 7.11736 10.8987 7.93515Z" fill="white"></path>
    <path d="M12.6996 2.92842C11.3699 1.59872 9.68749 0.759073 7.83028 0.5L7.66797 1.65802C9.27235 1.88276 10.7269 2.61004 11.8756 3.75558C12.9649 4.84493 13.6797 6.22145 13.9388 7.7353L15.0906 7.53866C14.7878 5.78446 13.9606 4.19256 12.6996 2.92842Z" fill="white"></path>
</svg>