<svg class="MuiSvgIcon-root MuiSvgIcon-fontSizeLarge" focusable="false" viewBox="0 0 24 24" aria-hidden="true">
    <svg viewBox="0 0 32 32" fill="none"
        xmlns="http://www.w3.org/2000/svg">
        <path fill-rule="evenodd" clip-rule="evenodd" d="M16 32C7.16346 32 5.82897e-06 24.8366 3.75509e-06 16C0 7.16345 7.16345 3.05327e-06 16 1.96695e-06C24.8366 0 32 7.16344 32 16C32 24.8366 24.8366 32 16 32ZM24.6434 10.5628C25.4734 10.4639 26.2641 10.244 27 9.91855C26.4499 10.739 25.7543 11.4596 24.9525 12.0365C24.9603 12.212 24.9644 12.3884 24.9644 12.5658C24.9644 17.9727 20.8372 24.2073 13.2899 24.2073C10.9727 24.2073 8.81587 23.5299 7.00001 22.3689C7.32103 22.4069 7.64763 22.4262 7.97884 22.4262C9.9013 22.4262 11.6706 21.7722 13.0748 20.6747C11.2793 20.6418 9.76399 19.4587 9.24181 17.8332C9.49239 17.881 9.74942 17.9068 10.0138 17.9068C10.3881 17.9068 10.7506 17.8566 11.0949 17.7631C9.21782 17.3872 7.80341 15.7335 7.80341 13.7511C7.80341 13.7339 7.80341 13.7167 7.8038 13.6997C8.35697 14.0062 8.98966 14.1902 9.66227 14.2115C8.56126 13.4777 7.83689 12.2254 7.83689 10.8058C7.83689 10.056 8.03927 9.35313 8.39247 8.74884C10.4162 11.2243 13.4397 12.8532 16.8498 13.0239C16.7799 12.7244 16.7436 12.4121 16.7436 12.0914C16.7436 9.83185 18.5807 8 20.8468 8C22.027 8 23.0934 8.49683 23.8419 9.29202C24.7765 9.10856 25.6546 8.76808 26.4475 8.29915C26.1411 9.25463 25.4905 10.0564 24.6434 10.5628Z" fill="white"></path>
    </svg>
</svg>